<svg width="115" height="36" viewBox="0 0 115 36" fill="none" xmlns="http://www.w3.org/2000/svg">
<path d="M31.1953 18.2734C31.1953 17.2109 31 16.2422 30.6094 15.3672C30.2188 14.4922 29.6484 13.7969 28.8984 13.2812C28.1641 12.7656 27.2656 12.5078 26.2031 12.5078H12.75V24.0391H26.2031C27.2656 24.0391 28.1641 23.7812 28.8984 23.2656C29.6484 22.7344 30.2188 22.0391 30.6094 21.1797C31 20.3047 31.1953 19.3359 31.1953 18.2734ZM28.5 2.52344C31.4062 2.52344 33.9844 3.23437 36.2344 4.65625C38.5 6.0625 40.2734 7.96094 41.5547 10.3516C42.8516 12.7266 43.5 15.3672 43.5 18.2734C43.5 21.1641 42.8516 23.8047 41.5547 26.1953C40.2734 28.5703 38.5 30.4688 36.2344 31.8906C33.9844 33.3125 31.4062 34.0234 28.5 34.0234H0.46875V2.52344H28.5ZM44.4375 35.2188L58.2656 0.648438H70.5703L56.7188 35.2188H44.4375ZM83.8125 23.2188V33.9766H71.5312V2.47656H83.8125V13.2344H102.258V2.47656H114.562V33.9766H102.258V23.2188H83.8125Z" fill="white"/>
</svg>
