<svg width="16" height="24" viewBox="0 0 16 24" fill="none" xmlns="http://www.w3.org/2000/svg">
<path d="M8 12C8 11.0305 8.38513 10.1007 9.07066 9.4152C9.75619 8.72967 10.686 8.34454 11.6555 8.34454C12.6249 8.34454 13.5547 8.72967 14.2403 9.4152C14.9258 10.1007 15.3109 11.0305 15.3109 12C15.3109 12.9695 14.9258 13.8993 14.2403 14.5848C13.5547 15.2703 12.6249 15.6555 11.6555 15.6555C10.686 15.6555 9.75619 15.2703 9.07066 14.5848C8.38513 13.8993 8 12.9695 8 12V12Z" stroke="white" stroke-width="1.30682"/>
<path d="M0.689087 19.311C0.689087 18.3415 1.07421 17.4117 1.75975 16.7262C2.44528 16.0406 3.37506 15.6555 4.34455 15.6555H8.00001V19.311C8.00001 20.2805 7.61488 21.2102 6.92935 21.8958C6.24382 22.5813 5.31404 22.9664 4.34455 22.9664C3.37506 22.9664 2.44528 22.5813 1.75975 21.8958C1.07421 21.2102 0.689087 20.2805 0.689087 19.311Z" stroke="white" stroke-width="1.30682"/>
<path d="M8 1.03369V8.34461H11.6555C12.6249 8.34461 13.5547 7.95949 14.2403 7.27395C14.9258 6.58842 15.3109 5.65864 15.3109 4.68915C15.3109 3.71966 14.9258 2.78988 14.2403 2.10435C13.5547 1.41882 12.6249 1.03369 11.6555 1.03369L8 1.03369Z" stroke="white" stroke-width="1.30682"/>
<path d="M0.689087 4.68909C0.689087 5.65858 1.07421 6.58836 1.75975 7.27389C2.44528 7.95942 3.37506 8.34455 4.34455 8.34455H8.00001V1.03363H4.34455C3.37506 1.03363 2.44528 1.41876 1.75975 2.10429C1.07421 2.78982 0.689087 3.7196 0.689087 4.68909Z" stroke="white" stroke-width="1.30682"/>
<path d="M0.689087 12C0.689087 12.9695 1.07421 13.8993 1.75975 14.5848C2.44528 15.2703 3.37506 15.6555 4.34455 15.6555H8.00001V8.34454H4.34455C3.37506 8.34454 2.44528 8.72967 1.75975 9.4152C1.07421 10.1007 0.689087 11.0305 0.689087 12Z" stroke="white" stroke-width="1.30682"/>
</svg>
