<svg width="26" height="24" viewBox="0 0 26 24" fill="none" xmlns="http://www.w3.org/2000/svg">
<path fill-rule="evenodd" clip-rule="evenodd" d="M13 0.0318604C6.22033 0.0318604 0.729126 5.52306 0.729126 12.3027C0.729126 17.7326 4.24165 22.3188 9.11931 23.9447C9.73286 24.052 9.96294 23.6839 9.96294 23.3618C9.96294 23.0704 9.9476 22.104 9.9476 21.0764C6.86455 21.6439 6.06694 20.3248 5.82153 19.6345C5.68348 19.2817 5.08528 18.1927 4.56376 17.9013C4.13428 17.6712 3.52074 17.1037 4.54843 17.0883C5.51475 17.073 6.20499 17.978 6.43507 18.3461C7.53944 20.2021 9.30338 19.6805 10.009 19.3584C10.1163 18.5608 10.4384 18.024 10.7912 17.7172C8.06096 17.4104 5.20798 16.3521 5.20798 11.6585C5.20798 10.324 5.68348 9.21965 6.46574 8.36069C6.34304 8.05392 5.91356 6.79616 6.58845 5.10892C6.58845 5.10892 7.61614 4.78681 9.96294 6.36668C10.9446 6.09059 11.9876 5.95254 13.0306 5.95254C14.0737 5.95254 15.1167 6.09059 16.0984 6.36668C18.4452 4.77147 19.4728 5.10892 19.4728 5.10892C20.1477 6.79616 19.7183 8.05392 19.5955 8.36069C20.3778 9.21965 20.8533 10.3087 20.8533 11.6585C20.8533 16.3674 17.985 17.4104 15.2547 17.7172C15.6996 18.1007 16.083 18.8369 16.083 19.9873C16.083 21.6285 16.0677 22.9477 16.0677 23.3618C16.0677 23.6839 16.2978 24.0674 16.9113 23.9447C21.7583 22.3188 25.2708 17.7172 25.2708 12.3027C25.2708 5.52306 19.7796 0.0318604 13 0.0318604V0.0318604Z" fill="white"/>
</svg>
